<mxfile host="app.diagrams.net" modified="2022-02-21T15:23:04.606Z" agent="5.0 (Windows NT 10.0; WOW64) AppleWebKit/537.36 (KHTML, like Gecko) Chrome/75.0.3770.100 Safari/537.36" etag="C5ERjl6n1YfnsSYz4emD" version="16.5.6" type="github" pages="6">
  <diagram id="Kmzh6wSpVczRe0Lrb-6-" name="找回密码">
    <mxGraphModel dx="1038" dy="576" grid="1" gridSize="10" guides="1" tooltips="1" connect="1" arrows="1" fold="1" page="1" pageScale="1" pageWidth="827" pageHeight="1169" math="0" shadow="0">
      <root>
        <mxCell id="FuUYy8-Zn2iDIKLhHMj8-0" />
        <mxCell id="FuUYy8-Zn2iDIKLhHMj8-1" parent="FuUYy8-Zn2iDIKLhHMj8-0" />
        <mxCell id="IIP4rIuuYUn2ihaWNvCv-37" value="Pool" style="swimlane;childLayout=stackLayout;resizeParent=1;resizeParentMax=0;startSize=20;horizontal=0;horizontalStack=1;" parent="FuUYy8-Zn2iDIKLhHMj8-1" vertex="1">
          <mxGeometry x="70" y="80" width="660" height="1390" as="geometry" />
        </mxCell>
        <mxCell id="IIP4rIuuYUn2ihaWNvCv-56" value="用户" style="swimlane;startSize=20;" parent="IIP4rIuuYUn2ihaWNvCv-37" vertex="1">
          <mxGeometry x="20" width="220" height="1390" as="geometry" />
        </mxCell>
        <mxCell id="IIP4rIuuYUn2ihaWNvCv-60" value="" style="shape=actor;whiteSpace=wrap;html=1;" parent="IIP4rIuuYUn2ihaWNvCv-56" vertex="1">
          <mxGeometry x="86" y="60" width="40" height="60" as="geometry" />
        </mxCell>
        <mxCell id="IIP4rIuuYUn2ihaWNvCv-44" value="输入账号、手机号，点击发送短信" style="whiteSpace=wrap;html=1;strokeWidth=2;" parent="IIP4rIuuYUn2ihaWNvCv-56" vertex="1">
          <mxGeometry x="66" y="180" width="120" height="60" as="geometry" />
        </mxCell>
        <mxCell id="IIP4rIuuYUn2ihaWNvCv-93" value="等待输入验证码或重新输入信息" style="whiteSpace=wrap;html=1;rounded=0;" parent="IIP4rIuuYUn2ihaWNvCv-56" vertex="1">
          <mxGeometry x="66" y="835" width="120" height="60" as="geometry" />
        </mxCell>
        <mxCell id="IIP4rIuuYUn2ihaWNvCv-38" value="MOA" style="swimlane;startSize=20;" parent="IIP4rIuuYUn2ihaWNvCv-37" vertex="1">
          <mxGeometry x="240" width="220" height="1390" as="geometry" />
        </mxCell>
        <mxCell id="IIP4rIuuYUn2ihaWNvCv-42" value="弹出找回密码窗口欧" style="whiteSpace=wrap;html=1;strokeWidth=2;" parent="IIP4rIuuYUn2ihaWNvCv-38" vertex="1">
          <mxGeometry x="50" y="60" width="120" height="60" as="geometry" />
        </mxCell>
        <mxCell id="IIP4rIuuYUn2ihaWNvCv-91" style="edgeStyle=orthogonalEdgeStyle;rounded=0;orthogonalLoop=1;jettySize=auto;html=1;" parent="IIP4rIuuYUn2ihaWNvCv-38" source="IIP4rIuuYUn2ihaWNvCv-48" target="IIP4rIuuYUn2ihaWNvCv-90" edge="1">
          <mxGeometry relative="1" as="geometry" />
        </mxCell>
        <mxCell id="IIP4rIuuYUn2ihaWNvCv-48" value="弹出验证码做图像校验，校验通过后组装报文，调用4A找回密码接口" style="whiteSpace=wrap;html=1;strokeWidth=2;" parent="IIP4rIuuYUn2ihaWNvCv-38" vertex="1">
          <mxGeometry x="50" y="180" width="120" height="60" as="geometry" />
        </mxCell>
        <mxCell id="IIP4rIuuYUn2ihaWNvCv-90" value="弹出相应信息到页面显示，若成功，提示用户查看个人手机输入验证码进行密码找回" style="rounded=0;whiteSpace=wrap;html=1;" parent="IIP4rIuuYUn2ihaWNvCv-38" vertex="1">
          <mxGeometry x="40" y="830" width="140" height="70" as="geometry" />
        </mxCell>
        <mxCell id="IIP4rIuuYUn2ihaWNvCv-100" value="获取验证，并校验" style="whiteSpace=wrap;html=1;rounded=0;" parent="IIP4rIuuYUn2ihaWNvCv-38" vertex="1">
          <mxGeometry x="50" y="975" width="120" height="60" as="geometry" />
        </mxCell>
        <mxCell id="IIP4rIuuYUn2ihaWNvCv-124" value="弹出重置成功提示" style="rounded=0;whiteSpace=wrap;html=1;" parent="IIP4rIuuYUn2ihaWNvCv-38" vertex="1">
          <mxGeometry x="50" y="1290" width="120" height="60" as="geometry" />
        </mxCell>
        <mxCell id="IIP4rIuuYUn2ihaWNvCv-123" style="edgeStyle=orthogonalEdgeStyle;rounded=0;orthogonalLoop=1;jettySize=auto;html=1;" parent="IIP4rIuuYUn2ihaWNvCv-38" source="IIP4rIuuYUn2ihaWNvCv-100" target="IIP4rIuuYUn2ihaWNvCv-124" edge="1">
          <mxGeometry relative="1" as="geometry">
            <mxPoint x="110" y="1290" as="targetPoint" />
          </mxGeometry>
        </mxCell>
        <mxCell id="IIP4rIuuYUn2ihaWNvCv-39" value="4A" style="swimlane;startSize=20;" parent="IIP4rIuuYUn2ihaWNvCv-37" vertex="1">
          <mxGeometry x="460" width="200" height="1390" as="geometry" />
        </mxCell>
        <mxCell id="IIP4rIuuYUn2ihaWNvCv-50" value="&lt;p class=&quot;MsoNormal&quot;&gt;&lt;a href=&quot;http://123.126.34.176:20214/WS4A/token/checkBwdaToken?args=xxx&quot;&gt;&lt;span style=&quot;font-size: 10.5000pt&quot;&gt;&lt;font face=&quot;Calibri&quot;&gt;get&lt;/font&gt;&lt;/span&gt;&lt;/a&gt;&lt;span style=&quot;font-size: 10.5000pt&quot;&gt;&lt;font face=&quot;Calibri&quot;&gt;PwdAuthCodeForApp&lt;/font&gt;&lt;/span&gt;&lt;/p&gt;" style="whiteSpace=wrap;html=1;strokeWidth=2;" parent="IIP4rIuuYUn2ihaWNvCv-39" vertex="1">
          <mxGeometry x="36" y="180" width="145" height="60" as="geometry" />
        </mxCell>
        <mxCell id="IIP4rIuuYUn2ihaWNvCv-72" style="edgeStyle=orthogonalEdgeStyle;rounded=0;orthogonalLoop=1;jettySize=auto;html=1;entryX=0.5;entryY=0;entryDx=0;entryDy=0;entryPerimeter=0;" parent="IIP4rIuuYUn2ihaWNvCv-39" source="IIP4rIuuYUn2ihaWNvCv-54" target="IIP4rIuuYUn2ihaWNvCv-70" edge="1">
          <mxGeometry relative="1" as="geometry" />
        </mxCell>
        <mxCell id="IIP4rIuuYUn2ihaWNvCv-73" value="正确" style="edgeLabel;html=1;align=center;verticalAlign=middle;resizable=0;points=[];" parent="IIP4rIuuYUn2ihaWNvCv-72" vertex="1" connectable="0">
          <mxGeometry x="-0.6" y="-1" relative="1" as="geometry">
            <mxPoint as="offset" />
          </mxGeometry>
        </mxCell>
        <mxCell id="IIP4rIuuYUn2ihaWNvCv-54" value="&lt;span&gt;校验格式&lt;/span&gt;" style="rhombus;whiteSpace=wrap;html=1;strokeWidth=2;" parent="IIP4rIuuYUn2ihaWNvCv-39" vertex="1">
          <mxGeometry x="68.5" y="300" width="80" height="80" as="geometry" />
        </mxCell>
        <mxCell id="IIP4rIuuYUn2ihaWNvCv-55" value="" style="edgeStyle=orthogonalEdgeStyle;rounded=0;orthogonalLoop=1;jettySize=auto;html=1;" parent="IIP4rIuuYUn2ihaWNvCv-39" source="IIP4rIuuYUn2ihaWNvCv-50" target="IIP4rIuuYUn2ihaWNvCv-54" edge="1">
          <mxGeometry relative="1" as="geometry" />
        </mxCell>
        <mxCell id="IIP4rIuuYUn2ihaWNvCv-79" value="" style="edgeStyle=orthogonalEdgeStyle;rounded=0;orthogonalLoop=1;jettySize=auto;html=1;" parent="IIP4rIuuYUn2ihaWNvCv-39" source="IIP4rIuuYUn2ihaWNvCv-70" target="IIP4rIuuYUn2ihaWNvCv-78" edge="1">
          <mxGeometry relative="1" as="geometry" />
        </mxCell>
        <mxCell id="IIP4rIuuYUn2ihaWNvCv-70" value="校验手机号与账号是否匹配" style="strokeWidth=2;html=1;shape=mxgraph.flowchart.decision;whiteSpace=wrap;" parent="IIP4rIuuYUn2ihaWNvCv-39" vertex="1">
          <mxGeometry x="58.5" y="430" width="100" height="70" as="geometry" />
        </mxCell>
        <mxCell id="IIP4rIuuYUn2ihaWNvCv-78" value="接口级校验，同设备同账号，访问间隔是否超过1分钟" style="strokeWidth=2;html=1;shape=mxgraph.flowchart.decision;whiteSpace=wrap;" parent="IIP4rIuuYUn2ihaWNvCv-39" vertex="1">
          <mxGeometry x="60" y="553" width="98.5" height="70" as="geometry" />
        </mxCell>
        <mxCell id="IIP4rIuuYUn2ihaWNvCv-104" value="getRealPwdForApp" style="whiteSpace=wrap;html=1;rounded=0;" parent="IIP4rIuuYUn2ihaWNvCv-39" vertex="1">
          <mxGeometry x="48.5" y="975" width="120" height="60" as="geometry" />
        </mxCell>
        <mxCell id="IIP4rIuuYUn2ihaWNvCv-118" value="重置用户密码，并发送短信到用户手机中" style="whiteSpace=wrap;html=1;rounded=0;" parent="IIP4rIuuYUn2ihaWNvCv-39" vertex="1">
          <mxGeometry x="48.5" y="1240" width="120" height="60" as="geometry" />
        </mxCell>
        <mxCell id="IIP4rIuuYUn2ihaWNvCv-61" style="edgeStyle=orthogonalEdgeStyle;rounded=0;orthogonalLoop=1;jettySize=auto;html=1;entryX=0;entryY=0.5;entryDx=0;entryDy=0;" parent="IIP4rIuuYUn2ihaWNvCv-37" source="IIP4rIuuYUn2ihaWNvCv-60" target="IIP4rIuuYUn2ihaWNvCv-42" edge="1">
          <mxGeometry relative="1" as="geometry" />
        </mxCell>
        <mxCell id="IIP4rIuuYUn2ihaWNvCv-64" value="&lt;span style=&quot;font-size: 12px ; background-color: rgb(248 , 249 , 250)&quot;&gt;点击找回密码&lt;/span&gt;" style="edgeLabel;html=1;align=center;verticalAlign=middle;resizable=0;points=[];" parent="IIP4rIuuYUn2ihaWNvCv-61" vertex="1" connectable="0">
          <mxGeometry x="-0.2361" y="-1" relative="1" as="geometry">
            <mxPoint as="offset" />
          </mxGeometry>
        </mxCell>
        <mxCell id="IIP4rIuuYUn2ihaWNvCv-65" style="edgeStyle=orthogonalEdgeStyle;rounded=0;orthogonalLoop=1;jettySize=auto;html=1;entryX=0.5;entryY=0;entryDx=0;entryDy=0;exitX=0.5;exitY=1;exitDx=0;exitDy=0;" parent="IIP4rIuuYUn2ihaWNvCv-37" source="IIP4rIuuYUn2ihaWNvCv-42" target="IIP4rIuuYUn2ihaWNvCv-44" edge="1">
          <mxGeometry relative="1" as="geometry" />
        </mxCell>
        <mxCell id="IIP4rIuuYUn2ihaWNvCv-49" value="" style="edgeStyle=orthogonalEdgeStyle;rounded=0;orthogonalLoop=1;jettySize=auto;html=1;" parent="IIP4rIuuYUn2ihaWNvCv-37" source="IIP4rIuuYUn2ihaWNvCv-44" target="IIP4rIuuYUn2ihaWNvCv-48" edge="1">
          <mxGeometry relative="1" as="geometry" />
        </mxCell>
        <mxCell id="IIP4rIuuYUn2ihaWNvCv-51" value="" style="edgeStyle=orthogonalEdgeStyle;rounded=0;orthogonalLoop=1;jettySize=auto;html=1;" parent="IIP4rIuuYUn2ihaWNvCv-37" source="IIP4rIuuYUn2ihaWNvCv-48" target="IIP4rIuuYUn2ihaWNvCv-50" edge="1">
          <mxGeometry relative="1" as="geometry" />
        </mxCell>
        <mxCell id="IIP4rIuuYUn2ihaWNvCv-66" style="edgeStyle=orthogonalEdgeStyle;rounded=0;orthogonalLoop=1;jettySize=auto;html=1;entryX=1;entryY=0.75;entryDx=0;entryDy=0;" parent="IIP4rIuuYUn2ihaWNvCv-37" source="IIP4rIuuYUn2ihaWNvCv-54" target="IIP4rIuuYUn2ihaWNvCv-48" edge="1">
          <mxGeometry relative="1" as="geometry" />
        </mxCell>
        <mxCell id="IIP4rIuuYUn2ihaWNvCv-67" value="不正确，RSP=1" style="edgeLabel;html=1;align=center;verticalAlign=middle;resizable=0;points=[];" parent="IIP4rIuuYUn2ihaWNvCv-66" vertex="1" connectable="0">
          <mxGeometry x="-0.1075" relative="1" as="geometry">
            <mxPoint as="offset" />
          </mxGeometry>
        </mxCell>
        <mxCell id="IIP4rIuuYUn2ihaWNvCv-74" style="edgeStyle=orthogonalEdgeStyle;rounded=0;orthogonalLoop=1;jettySize=auto;html=1;exitX=0;exitY=0.5;exitDx=0;exitDy=0;exitPerimeter=0;entryX=1.042;entryY=0.883;entryDx=0;entryDy=0;entryPerimeter=0;" parent="IIP4rIuuYUn2ihaWNvCv-37" source="IIP4rIuuYUn2ihaWNvCv-70" target="IIP4rIuuYUn2ihaWNvCv-48" edge="1">
          <mxGeometry relative="1" as="geometry" />
        </mxCell>
        <mxCell id="IIP4rIuuYUn2ihaWNvCv-75" value="不正确，RSP=2" style="edgeLabel;html=1;align=center;verticalAlign=middle;resizable=0;points=[];" parent="IIP4rIuuYUn2ihaWNvCv-74" vertex="1" connectable="0">
          <mxGeometry x="-0.0153" relative="1" as="geometry">
            <mxPoint y="-1" as="offset" />
          </mxGeometry>
        </mxCell>
        <mxCell id="IIP4rIuuYUn2ihaWNvCv-81" style="edgeStyle=orthogonalEdgeStyle;rounded=0;orthogonalLoop=1;jettySize=auto;html=1;entryX=0.95;entryY=1.017;entryDx=0;entryDy=0;entryPerimeter=0;" parent="IIP4rIuuYUn2ihaWNvCv-37" source="IIP4rIuuYUn2ihaWNvCv-78" target="IIP4rIuuYUn2ihaWNvCv-48" edge="1">
          <mxGeometry relative="1" as="geometry">
            <mxPoint x="386" y="250" as="targetPoint" />
          </mxGeometry>
        </mxCell>
        <mxCell id="IIP4rIuuYUn2ihaWNvCv-82" value="不通过，RSP=3" style="edgeLabel;html=1;align=center;verticalAlign=middle;resizable=0;points=[];" parent="IIP4rIuuYUn2ihaWNvCv-81" vertex="1" connectable="0">
          <mxGeometry x="-0.1573" y="-1" relative="1" as="geometry">
            <mxPoint as="offset" />
          </mxGeometry>
        </mxCell>
        <mxCell id="IIP4rIuuYUn2ihaWNvCv-94" value="" style="edgeStyle=orthogonalEdgeStyle;rounded=0;orthogonalLoop=1;jettySize=auto;html=1;" parent="IIP4rIuuYUn2ihaWNvCv-37" source="IIP4rIuuYUn2ihaWNvCv-90" target="IIP4rIuuYUn2ihaWNvCv-93" edge="1">
          <mxGeometry relative="1" as="geometry" />
        </mxCell>
        <mxCell id="IIP4rIuuYUn2ihaWNvCv-105" value="" style="edgeStyle=orthogonalEdgeStyle;rounded=0;orthogonalLoop=1;jettySize=auto;html=1;" parent="IIP4rIuuYUn2ihaWNvCv-37" source="IIP4rIuuYUn2ihaWNvCv-100" target="IIP4rIuuYUn2ihaWNvCv-104" edge="1">
          <mxGeometry relative="1" as="geometry" />
        </mxCell>
        <mxCell id="IIP4rIuuYUn2ihaWNvCv-106" value="组装报文" style="edgeLabel;html=1;align=center;verticalAlign=middle;resizable=0;points=[];" parent="IIP4rIuuYUn2ihaWNvCv-105" vertex="1" connectable="0">
          <mxGeometry x="-0.2893" y="-3" relative="1" as="geometry">
            <mxPoint as="offset" />
          </mxGeometry>
        </mxCell>
        <mxCell id="IIP4rIuuYUn2ihaWNvCv-121" style="edgeStyle=orthogonalEdgeStyle;rounded=0;orthogonalLoop=1;jettySize=auto;html=1;entryX=0.683;entryY=0.983;entryDx=0;entryDy=0;entryPerimeter=0;" parent="IIP4rIuuYUn2ihaWNvCv-37" source="IIP4rIuuYUn2ihaWNvCv-118" target="IIP4rIuuYUn2ihaWNvCv-100" edge="1">
          <mxGeometry relative="1" as="geometry" />
        </mxCell>
        <mxCell id="IIP4rIuuYUn2ihaWNvCv-122" value="RSP=0" style="edgeLabel;html=1;align=center;verticalAlign=middle;resizable=0;points=[];" parent="IIP4rIuuYUn2ihaWNvCv-121" vertex="1" connectable="0">
          <mxGeometry x="-0.5095" y="-3" relative="1" as="geometry">
            <mxPoint x="1" as="offset" />
          </mxGeometry>
        </mxCell>
        <mxCell id="IIP4rIuuYUn2ihaWNvCv-85" style="edgeStyle=orthogonalEdgeStyle;rounded=0;orthogonalLoop=1;jettySize=auto;html=1;entryX=0.867;entryY=1.033;entryDx=0;entryDy=0;entryPerimeter=0;" parent="FuUYy8-Zn2iDIKLhHMj8-1" source="IIP4rIuuYUn2ihaWNvCv-83" target="IIP4rIuuYUn2ihaWNvCv-48" edge="1">
          <mxGeometry relative="1" as="geometry" />
        </mxCell>
        <mxCell id="IIP4rIuuYUn2ihaWNvCv-86" value="不通过，RSP=4" style="edgeLabel;html=1;align=center;verticalAlign=middle;resizable=0;points=[];" parent="IIP4rIuuYUn2ihaWNvCv-85" vertex="1" connectable="0">
          <mxGeometry x="-0.3334" y="2" relative="1" as="geometry">
            <mxPoint as="offset" />
          </mxGeometry>
        </mxCell>
        <mxCell id="IIP4rIuuYUn2ihaWNvCv-87" style="edgeStyle=orthogonalEdgeStyle;rounded=0;orthogonalLoop=1;jettySize=auto;html=1;exitX=0.5;exitY=1;exitDx=0;exitDy=0;exitPerimeter=0;entryX=0.75;entryY=1;entryDx=0;entryDy=0;" parent="FuUYy8-Zn2iDIKLhHMj8-1" source="IIP4rIuuYUn2ihaWNvCv-83" target="IIP4rIuuYUn2ihaWNvCv-48" edge="1">
          <mxGeometry relative="1" as="geometry">
            <mxPoint x="396" y="330" as="targetPoint" />
          </mxGeometry>
        </mxCell>
        <mxCell id="IIP4rIuuYUn2ihaWNvCv-88" value="通过，RSP=0" style="edgeLabel;html=1;align=center;verticalAlign=middle;resizable=0;points=[];" parent="IIP4rIuuYUn2ihaWNvCv-87" vertex="1" connectable="0">
          <mxGeometry x="-0.4962" y="-2" relative="1" as="geometry">
            <mxPoint as="offset" />
          </mxGeometry>
        </mxCell>
        <mxCell id="IIP4rIuuYUn2ihaWNvCv-83" value="同设备同账号，单日找回是否超过10次" style="strokeWidth=2;html=1;shape=mxgraph.flowchart.decision;whiteSpace=wrap;" parent="FuUYy8-Zn2iDIKLhHMj8-1" vertex="1">
          <mxGeometry x="590" y="754" width="98.5" height="70" as="geometry" />
        </mxCell>
        <mxCell id="IIP4rIuuYUn2ihaWNvCv-84" value="" style="edgeStyle=orthogonalEdgeStyle;rounded=0;orthogonalLoop=1;jettySize=auto;html=1;" parent="FuUYy8-Zn2iDIKLhHMj8-1" source="IIP4rIuuYUn2ihaWNvCv-78" target="IIP4rIuuYUn2ihaWNvCv-83" edge="1">
          <mxGeometry relative="1" as="geometry" />
        </mxCell>
        <mxCell id="IIP4rIuuYUn2ihaWNvCv-101" value="" style="edgeStyle=orthogonalEdgeStyle;rounded=0;orthogonalLoop=1;jettySize=auto;html=1;" parent="FuUYy8-Zn2iDIKLhHMj8-1" source="IIP4rIuuYUn2ihaWNvCv-97" target="IIP4rIuuYUn2ihaWNvCv-100" edge="1">
          <mxGeometry relative="1" as="geometry" />
        </mxCell>
        <mxCell id="IIP4rIuuYUn2ihaWNvCv-97" value="输入短信验证码，点击确认" style="whiteSpace=wrap;html=1;rounded=0;" parent="FuUYy8-Zn2iDIKLhHMj8-1" vertex="1">
          <mxGeometry x="156" y="1055" width="120" height="60" as="geometry" />
        </mxCell>
        <mxCell id="IIP4rIuuYUn2ihaWNvCv-98" value="" style="edgeStyle=orthogonalEdgeStyle;rounded=0;orthogonalLoop=1;jettySize=auto;html=1;" parent="FuUYy8-Zn2iDIKLhHMj8-1" source="IIP4rIuuYUn2ihaWNvCv-93" target="IIP4rIuuYUn2ihaWNvCv-97" edge="1">
          <mxGeometry relative="1" as="geometry" />
        </mxCell>
        <mxCell id="IIP4rIuuYUn2ihaWNvCv-109" style="edgeStyle=orthogonalEdgeStyle;rounded=0;orthogonalLoop=1;jettySize=auto;html=1;exitX=0;exitY=0;exitDx=0;exitDy=0;entryX=1;entryY=0.75;entryDx=0;entryDy=0;" parent="FuUYy8-Zn2iDIKLhHMj8-1" source="IIP4rIuuYUn2ihaWNvCv-107" target="IIP4rIuuYUn2ihaWNvCv-100" edge="1">
          <mxGeometry relative="1" as="geometry" />
        </mxCell>
        <mxCell id="IIP4rIuuYUn2ihaWNvCv-110" value="报文不正确，RSP=1" style="edgeLabel;html=1;align=center;verticalAlign=middle;resizable=0;points=[];" parent="IIP4rIuuYUn2ihaWNvCv-109" vertex="1" connectable="0">
          <mxGeometry x="-0.1852" y="-5" relative="1" as="geometry">
            <mxPoint as="offset" />
          </mxGeometry>
        </mxCell>
        <mxCell id="IIP4rIuuYUn2ihaWNvCv-112" style="edgeStyle=orthogonalEdgeStyle;rounded=0;orthogonalLoop=1;jettySize=auto;html=1;entryX=0.933;entryY=0.983;entryDx=0;entryDy=0;entryPerimeter=0;" parent="FuUYy8-Zn2iDIKLhHMj8-1" source="IIP4rIuuYUn2ihaWNvCv-107" target="IIP4rIuuYUn2ihaWNvCv-100" edge="1">
          <mxGeometry relative="1" as="geometry" />
        </mxCell>
        <mxCell id="IIP4rIuuYUn2ihaWNvCv-113" value="验证码不正确,RSP=2" style="edgeLabel;html=1;align=center;verticalAlign=middle;resizable=0;points=[];" parent="IIP4rIuuYUn2ihaWNvCv-112" vertex="1" connectable="0">
          <mxGeometry x="-0.2127" y="-1" relative="1" as="geometry">
            <mxPoint as="offset" />
          </mxGeometry>
        </mxCell>
        <mxCell id="IIP4rIuuYUn2ihaWNvCv-114" style="edgeStyle=orthogonalEdgeStyle;rounded=0;orthogonalLoop=1;jettySize=auto;html=1;exitX=0;exitY=1;exitDx=0;exitDy=0;entryX=0.833;entryY=1.017;entryDx=0;entryDy=0;entryPerimeter=0;" parent="FuUYy8-Zn2iDIKLhHMj8-1" source="IIP4rIuuYUn2ihaWNvCv-107" target="IIP4rIuuYUn2ihaWNvCv-100" edge="1">
          <mxGeometry relative="1" as="geometry" />
        </mxCell>
        <mxCell id="IIP4rIuuYUn2ihaWNvCv-115" value="验证码已超期，RSP=3" style="edgeLabel;html=1;align=center;verticalAlign=middle;resizable=0;points=[];" parent="IIP4rIuuYUn2ihaWNvCv-114" vertex="1" connectable="0">
          <mxGeometry x="-0.3426" y="-1" relative="1" as="geometry">
            <mxPoint as="offset" />
          </mxGeometry>
        </mxCell>
        <mxCell id="IIP4rIuuYUn2ihaWNvCv-119" value="" style="edgeStyle=orthogonalEdgeStyle;rounded=0;orthogonalLoop=1;jettySize=auto;html=1;" parent="FuUYy8-Zn2iDIKLhHMj8-1" source="IIP4rIuuYUn2ihaWNvCv-107" target="IIP4rIuuYUn2ihaWNvCv-118" edge="1">
          <mxGeometry relative="1" as="geometry" />
        </mxCell>
        <mxCell id="IIP4rIuuYUn2ihaWNvCv-120" value="验证通过" style="edgeLabel;html=1;align=center;verticalAlign=middle;resizable=0;points=[];" parent="IIP4rIuuYUn2ihaWNvCv-119" vertex="1" connectable="0">
          <mxGeometry x="-0.2444" y="4" relative="1" as="geometry">
            <mxPoint as="offset" />
          </mxGeometry>
        </mxCell>
        <mxCell id="IIP4rIuuYUn2ihaWNvCv-107" value="校验格式和内容" style="rhombus;whiteSpace=wrap;html=1;rounded=0;" parent="FuUYy8-Zn2iDIKLhHMj8-1" vertex="1">
          <mxGeometry x="598.5" y="1185" width="80" height="80" as="geometry" />
        </mxCell>
        <mxCell id="IIP4rIuuYUn2ihaWNvCv-108" value="" style="edgeStyle=orthogonalEdgeStyle;rounded=0;orthogonalLoop=1;jettySize=auto;html=1;" parent="FuUYy8-Zn2iDIKLhHMj8-1" source="IIP4rIuuYUn2ihaWNvCv-104" target="IIP4rIuuYUn2ihaWNvCv-107" edge="1">
          <mxGeometry relative="1" as="geometry" />
        </mxCell>
      </root>
    </mxGraphModel>
  </diagram>
  <diagram name="修改密码" id="8ce9d11a-91a2-4d17-14d8-a56ed91bf033">
    <mxGraphModel dx="1038" dy="576" grid="1" gridSize="10" guides="1" tooltips="1" connect="1" arrows="1" fold="1" page="1" pageScale="1" pageWidth="1100" pageHeight="850" background="none" math="0" shadow="0">
      <root>
        <mxCell id="0" />
        <mxCell id="1" parent="0" />
      </root>
    </mxGraphModel>
  </diagram>
  <diagram id="smN93Xg2UFiTv3xcvgqn" name="登录认证">
    <mxGraphModel dx="1038" dy="576" grid="1" gridSize="10" guides="1" tooltips="1" connect="1" arrows="1" fold="1" page="1" pageScale="1" pageWidth="827" pageHeight="1169" math="0" shadow="0">
      <root>
        <mxCell id="27ZyNSSo2jnDw6zNUmZT-0" />
        <mxCell id="27ZyNSSo2jnDw6zNUmZT-1" parent="27ZyNSSo2jnDw6zNUmZT-0" />
      </root>
    </mxGraphModel>
  </diagram>
  <diagram name="修改密码" id="oL6tkg7jwoP_JrwJ_ri-">
    <mxGraphModel dx="1038" dy="576" grid="1" gridSize="10" guides="1" tooltips="1" connect="1" arrows="1" fold="1" page="1" pageScale="1" pageWidth="1100" pageHeight="850" background="none" math="0" shadow="0">
      <root>
        <mxCell id="0" />
        <mxCell id="1" parent="0" />
        <mxCell id="6lT4RTNOQQL69xJHQuYG-1" value="" style="strokeWidth=2;html=1;shape=mxgraph.flowchart.start_1;whiteSpace=wrap;" parent="1" vertex="1">
          <mxGeometry x="140" y="100" width="100" height="60" as="geometry" />
        </mxCell>
      </root>
    </mxGraphModel>
  </diagram>
  <diagram id="uJXX_KpD_IACt5CmpuH2" name="ER图">
    <mxGraphModel dx="1038" dy="576" grid="1" gridSize="10" guides="1" tooltips="1" connect="1" arrows="1" fold="1" page="1" pageScale="1" pageWidth="827" pageHeight="1169" math="0" shadow="0">
      <root>
        <mxCell id="EK_pK1y2iK-1zOjErAnI-0" />
        <mxCell id="EK_pK1y2iK-1zOjErAnI-1" parent="EK_pK1y2iK-1zOjErAnI-0" />
        <mxCell id="EK_pK1y2iK-1zOjErAnI-2" value="user" style="shape=table;startSize=30;container=1;collapsible=1;childLayout=tableLayout;fixedRows=1;rowLines=0;fontStyle=1;align=center;resizeLast=1;" parent="EK_pK1y2iK-1zOjErAnI-1" vertex="1">
          <mxGeometry x="100" y="140" width="180" height="160" as="geometry" />
        </mxCell>
        <mxCell id="EK_pK1y2iK-1zOjErAnI-3" value="" style="shape=partialRectangle;collapsible=0;dropTarget=0;pointerEvents=0;fillColor=none;top=0;left=0;bottom=1;right=0;points=[[0,0.5],[1,0.5]];portConstraint=eastwest;" parent="EK_pK1y2iK-1zOjErAnI-2" vertex="1">
          <mxGeometry y="30" width="180" height="30" as="geometry" />
        </mxCell>
        <mxCell id="EK_pK1y2iK-1zOjErAnI-4" value="PK" style="shape=partialRectangle;connectable=0;fillColor=none;top=0;left=0;bottom=0;right=0;fontStyle=1;overflow=hidden;" parent="EK_pK1y2iK-1zOjErAnI-3" vertex="1">
          <mxGeometry width="30" height="30" as="geometry">
            <mxRectangle width="30" height="30" as="alternateBounds" />
          </mxGeometry>
        </mxCell>
        <mxCell id="EK_pK1y2iK-1zOjErAnI-5" value="uid" style="shape=partialRectangle;connectable=0;fillColor=none;top=0;left=0;bottom=0;right=0;align=left;spacingLeft=6;fontStyle=5;overflow=hidden;" parent="EK_pK1y2iK-1zOjErAnI-3" vertex="1">
          <mxGeometry x="30" width="150" height="30" as="geometry">
            <mxRectangle width="150" height="30" as="alternateBounds" />
          </mxGeometry>
        </mxCell>
        <mxCell id="EK_pK1y2iK-1zOjErAnI-6" value="" style="shape=partialRectangle;collapsible=0;dropTarget=0;pointerEvents=0;fillColor=none;top=0;left=0;bottom=0;right=0;points=[[0,0.5],[1,0.5]];portConstraint=eastwest;" parent="EK_pK1y2iK-1zOjErAnI-2" vertex="1">
          <mxGeometry y="60" width="180" height="30" as="geometry" />
        </mxCell>
        <mxCell id="EK_pK1y2iK-1zOjErAnI-7" value="" style="shape=partialRectangle;connectable=0;fillColor=none;top=0;left=0;bottom=0;right=0;editable=1;overflow=hidden;" parent="EK_pK1y2iK-1zOjErAnI-6" vertex="1">
          <mxGeometry width="30" height="30" as="geometry">
            <mxRectangle width="30" height="30" as="alternateBounds" />
          </mxGeometry>
        </mxCell>
        <mxCell id="EK_pK1y2iK-1zOjErAnI-8" value="usercode" style="shape=partialRectangle;connectable=0;fillColor=none;top=0;left=0;bottom=0;right=0;align=left;spacingLeft=6;overflow=hidden;" parent="EK_pK1y2iK-1zOjErAnI-6" vertex="1">
          <mxGeometry x="30" width="150" height="30" as="geometry">
            <mxRectangle width="150" height="30" as="alternateBounds" />
          </mxGeometry>
        </mxCell>
        <mxCell id="EK_pK1y2iK-1zOjErAnI-9" value="" style="shape=partialRectangle;collapsible=0;dropTarget=0;pointerEvents=0;fillColor=none;top=0;left=0;bottom=0;right=0;points=[[0,0.5],[1,0.5]];portConstraint=eastwest;" parent="EK_pK1y2iK-1zOjErAnI-2" vertex="1">
          <mxGeometry y="90" width="180" height="30" as="geometry" />
        </mxCell>
        <mxCell id="EK_pK1y2iK-1zOjErAnI-10" value="" style="shape=partialRectangle;connectable=0;fillColor=none;top=0;left=0;bottom=0;right=0;editable=1;overflow=hidden;" parent="EK_pK1y2iK-1zOjErAnI-9" vertex="1">
          <mxGeometry width="30" height="30" as="geometry">
            <mxRectangle width="30" height="30" as="alternateBounds" />
          </mxGeometry>
        </mxCell>
        <mxCell id="EK_pK1y2iK-1zOjErAnI-11" value="username" style="shape=partialRectangle;connectable=0;fillColor=none;top=0;left=0;bottom=0;right=0;align=left;spacingLeft=6;overflow=hidden;" parent="EK_pK1y2iK-1zOjErAnI-9" vertex="1">
          <mxGeometry x="30" width="150" height="30" as="geometry">
            <mxRectangle width="150" height="30" as="alternateBounds" />
          </mxGeometry>
        </mxCell>
        <mxCell id="EK_pK1y2iK-1zOjErAnI-12" value="" style="shape=partialRectangle;collapsible=0;dropTarget=0;pointerEvents=0;fillColor=none;top=0;left=0;bottom=0;right=0;points=[[0,0.5],[1,0.5]];portConstraint=eastwest;" parent="EK_pK1y2iK-1zOjErAnI-2" vertex="1">
          <mxGeometry y="120" width="180" height="30" as="geometry" />
        </mxCell>
        <mxCell id="EK_pK1y2iK-1zOjErAnI-13" value="" style="shape=partialRectangle;connectable=0;fillColor=none;top=0;left=0;bottom=0;right=0;editable=1;overflow=hidden;" parent="EK_pK1y2iK-1zOjErAnI-12" vertex="1">
          <mxGeometry width="30" height="30" as="geometry">
            <mxRectangle width="30" height="30" as="alternateBounds" />
          </mxGeometry>
        </mxCell>
        <mxCell id="EK_pK1y2iK-1zOjErAnI-14" value="sex" style="shape=partialRectangle;connectable=0;fillColor=none;top=0;left=0;bottom=0;right=0;align=left;spacingLeft=6;overflow=hidden;" parent="EK_pK1y2iK-1zOjErAnI-12" vertex="1">
          <mxGeometry x="30" width="150" height="30" as="geometry">
            <mxRectangle width="150" height="30" as="alternateBounds" />
          </mxGeometry>
        </mxCell>
        <mxCell id="EK_pK1y2iK-1zOjErAnI-15" value="Table" style="shape=table;startSize=30;container=1;collapsible=1;childLayout=tableLayout;fixedRows=1;rowLines=0;fontStyle=1;align=center;resizeLast=1;" parent="EK_pK1y2iK-1zOjErAnI-1" vertex="1">
          <mxGeometry x="370" y="130" width="180" height="160" as="geometry" />
        </mxCell>
        <mxCell id="EK_pK1y2iK-1zOjErAnI-16" value="" style="shape=partialRectangle;collapsible=0;dropTarget=0;pointerEvents=0;fillColor=none;top=0;left=0;bottom=0;right=0;points=[[0,0.5],[1,0.5]];portConstraint=eastwest;" parent="EK_pK1y2iK-1zOjErAnI-15" vertex="1">
          <mxGeometry y="30" width="180" height="30" as="geometry" />
        </mxCell>
        <mxCell id="EK_pK1y2iK-1zOjErAnI-17" value="PK,FK1" style="shape=partialRectangle;connectable=0;fillColor=none;top=0;left=0;bottom=0;right=0;fontStyle=1;overflow=hidden;" parent="EK_pK1y2iK-1zOjErAnI-16" vertex="1">
          <mxGeometry width="60" height="30" as="geometry">
            <mxRectangle width="60" height="30" as="alternateBounds" />
          </mxGeometry>
        </mxCell>
        <mxCell id="EK_pK1y2iK-1zOjErAnI-18" value="Row 1" style="shape=partialRectangle;connectable=0;fillColor=none;top=0;left=0;bottom=0;right=0;align=left;spacingLeft=6;fontStyle=5;overflow=hidden;" parent="EK_pK1y2iK-1zOjErAnI-16" vertex="1">
          <mxGeometry x="60" width="120" height="30" as="geometry">
            <mxRectangle width="120" height="30" as="alternateBounds" />
          </mxGeometry>
        </mxCell>
        <mxCell id="EK_pK1y2iK-1zOjErAnI-19" value="" style="shape=partialRectangle;collapsible=0;dropTarget=0;pointerEvents=0;fillColor=none;top=0;left=0;bottom=1;right=0;points=[[0,0.5],[1,0.5]];portConstraint=eastwest;" parent="EK_pK1y2iK-1zOjErAnI-15" vertex="1">
          <mxGeometry y="60" width="180" height="30" as="geometry" />
        </mxCell>
        <mxCell id="EK_pK1y2iK-1zOjErAnI-20" value="PK,FK2" style="shape=partialRectangle;connectable=0;fillColor=none;top=0;left=0;bottom=0;right=0;fontStyle=1;overflow=hidden;" parent="EK_pK1y2iK-1zOjErAnI-19" vertex="1">
          <mxGeometry width="60" height="30" as="geometry">
            <mxRectangle width="60" height="30" as="alternateBounds" />
          </mxGeometry>
        </mxCell>
        <mxCell id="EK_pK1y2iK-1zOjErAnI-21" value="Row 2" style="shape=partialRectangle;connectable=0;fillColor=none;top=0;left=0;bottom=0;right=0;align=left;spacingLeft=6;fontStyle=5;overflow=hidden;" parent="EK_pK1y2iK-1zOjErAnI-19" vertex="1">
          <mxGeometry x="60" width="120" height="30" as="geometry">
            <mxRectangle width="120" height="30" as="alternateBounds" />
          </mxGeometry>
        </mxCell>
        <mxCell id="EK_pK1y2iK-1zOjErAnI-22" value="" style="shape=partialRectangle;collapsible=0;dropTarget=0;pointerEvents=0;fillColor=none;top=0;left=0;bottom=0;right=0;points=[[0,0.5],[1,0.5]];portConstraint=eastwest;" parent="EK_pK1y2iK-1zOjErAnI-15" vertex="1">
          <mxGeometry y="90" width="180" height="30" as="geometry" />
        </mxCell>
        <mxCell id="EK_pK1y2iK-1zOjErAnI-23" value="" style="shape=partialRectangle;connectable=0;fillColor=none;top=0;left=0;bottom=0;right=0;editable=1;overflow=hidden;" parent="EK_pK1y2iK-1zOjErAnI-22" vertex="1">
          <mxGeometry width="60" height="30" as="geometry">
            <mxRectangle width="60" height="30" as="alternateBounds" />
          </mxGeometry>
        </mxCell>
        <mxCell id="EK_pK1y2iK-1zOjErAnI-24" value="Row 3" style="shape=partialRectangle;connectable=0;fillColor=none;top=0;left=0;bottom=0;right=0;align=left;spacingLeft=6;overflow=hidden;" parent="EK_pK1y2iK-1zOjErAnI-22" vertex="1">
          <mxGeometry x="60" width="120" height="30" as="geometry">
            <mxRectangle width="120" height="30" as="alternateBounds" />
          </mxGeometry>
        </mxCell>
        <mxCell id="EK_pK1y2iK-1zOjErAnI-25" value="" style="shape=partialRectangle;collapsible=0;dropTarget=0;pointerEvents=0;fillColor=none;top=0;left=0;bottom=0;right=0;points=[[0,0.5],[1,0.5]];portConstraint=eastwest;" parent="EK_pK1y2iK-1zOjErAnI-15" vertex="1">
          <mxGeometry y="120" width="180" height="30" as="geometry" />
        </mxCell>
        <mxCell id="EK_pK1y2iK-1zOjErAnI-26" value="" style="shape=partialRectangle;connectable=0;fillColor=none;top=0;left=0;bottom=0;right=0;editable=1;overflow=hidden;" parent="EK_pK1y2iK-1zOjErAnI-25" vertex="1">
          <mxGeometry width="60" height="30" as="geometry">
            <mxRectangle width="60" height="30" as="alternateBounds" />
          </mxGeometry>
        </mxCell>
        <mxCell id="EK_pK1y2iK-1zOjErAnI-27" value="Row 4" style="shape=partialRectangle;connectable=0;fillColor=none;top=0;left=0;bottom=0;right=0;align=left;spacingLeft=6;overflow=hidden;" parent="EK_pK1y2iK-1zOjErAnI-25" vertex="1">
          <mxGeometry x="60" width="120" height="30" as="geometry">
            <mxRectangle width="120" height="30" as="alternateBounds" />
          </mxGeometry>
        </mxCell>
      </root>
    </mxGraphModel>
  </diagram>
  <diagram id="RCSBvvizIeiSMQ2pPhYt" name="MOA人脸认证">
    <mxGraphModel dx="1038" dy="576" grid="1" gridSize="10" guides="1" tooltips="1" connect="1" arrows="1" fold="1" page="1" pageScale="1" pageWidth="827" pageHeight="1169" math="0" shadow="0">
      <root>
        <mxCell id="FLhYPNo3Th5g0a7MgYlW-0" />
        <mxCell id="FLhYPNo3Th5g0a7MgYlW-1" parent="FLhYPNo3Th5g0a7MgYlW-0" />
        <mxCell id="vkV_C0hstpCLfrFw6tV1-0" value="MOA" style="swimlane;" vertex="1" parent="FLhYPNo3Th5g0a7MgYlW-1">
          <mxGeometry x="30" y="150" width="200" height="330" as="geometry" />
        </mxCell>
        <mxCell id="vkV_C0hstpCLfrFw6tV1-4" value="开启人脸识别（上传头像）" style="rounded=0;whiteSpace=wrap;html=1;" vertex="1" parent="vkV_C0hstpCLfrFw6tV1-0">
          <mxGeometry x="40" y="60" width="120" height="60" as="geometry" />
        </mxCell>
        <mxCell id="vkV_C0hstpCLfrFw6tV1-9" value="扫码认证" style="rounded=0;whiteSpace=wrap;html=1;" vertex="1" parent="vkV_C0hstpCLfrFw6tV1-0">
          <mxGeometry x="40" y="200" width="120" height="60" as="geometry" />
        </mxCell>
        <mxCell id="vkV_C0hstpCLfrFw6tV1-1" value="4A" style="swimlane;" vertex="1" parent="FLhYPNo3Th5g0a7MgYlW-1">
          <mxGeometry x="330" y="150" width="200" height="330" as="geometry" />
        </mxCell>
        <mxCell id="vkV_C0hstpCLfrFw6tV1-5" value="人员头像接收接口" style="rounded=0;whiteSpace=wrap;html=1;" vertex="1" parent="vkV_C0hstpCLfrFw6tV1-1">
          <mxGeometry x="40" y="60" width="120" height="60" as="geometry" />
        </mxCell>
        <mxCell id="vkV_C0hstpCLfrFw6tV1-10" value="人脸认证接口" style="rounded=0;whiteSpace=wrap;html=1;" vertex="1" parent="vkV_C0hstpCLfrFw6tV1-1">
          <mxGeometry x="40" y="200" width="120" height="60" as="geometry" />
        </mxCell>
        <mxCell id="vkV_C0hstpCLfrFw6tV1-2" value="文件组件" style="swimlane;" vertex="1" parent="FLhYPNo3Th5g0a7MgYlW-1">
          <mxGeometry x="620" y="150" width="200" height="150" as="geometry" />
        </mxCell>
        <mxCell id="vkV_C0hstpCLfrFw6tV1-7" value="文件接收接口" style="rounded=0;whiteSpace=wrap;html=1;" vertex="1" parent="vkV_C0hstpCLfrFw6tV1-2">
          <mxGeometry x="40" y="60" width="120" height="60" as="geometry" />
        </mxCell>
        <mxCell id="vkV_C0hstpCLfrFw6tV1-3" value="人脸识别" style="swimlane;" vertex="1" parent="FLhYPNo3Th5g0a7MgYlW-1">
          <mxGeometry x="620" y="340" width="200" height="140" as="geometry" />
        </mxCell>
        <mxCell id="vkV_C0hstpCLfrFw6tV1-12" value="人脸识别接口" style="rounded=0;whiteSpace=wrap;html=1;" vertex="1" parent="vkV_C0hstpCLfrFw6tV1-3">
          <mxGeometry x="40" y="40" width="120" height="60" as="geometry" />
        </mxCell>
        <mxCell id="vkV_C0hstpCLfrFw6tV1-6" style="edgeStyle=orthogonalEdgeStyle;rounded=0;orthogonalLoop=1;jettySize=auto;html=1;" edge="1" parent="FLhYPNo3Th5g0a7MgYlW-1" source="vkV_C0hstpCLfrFw6tV1-4" target="vkV_C0hstpCLfrFw6tV1-5">
          <mxGeometry relative="1" as="geometry" />
        </mxCell>
        <mxCell id="vkV_C0hstpCLfrFw6tV1-8" style="edgeStyle=orthogonalEdgeStyle;rounded=0;orthogonalLoop=1;jettySize=auto;html=1;" edge="1" parent="FLhYPNo3Th5g0a7MgYlW-1" source="vkV_C0hstpCLfrFw6tV1-5" target="vkV_C0hstpCLfrFw6tV1-7">
          <mxGeometry relative="1" as="geometry" />
        </mxCell>
        <mxCell id="vkV_C0hstpCLfrFw6tV1-11" style="edgeStyle=orthogonalEdgeStyle;rounded=0;orthogonalLoop=1;jettySize=auto;html=1;" edge="1" parent="FLhYPNo3Th5g0a7MgYlW-1" source="vkV_C0hstpCLfrFw6tV1-9" target="vkV_C0hstpCLfrFw6tV1-10">
          <mxGeometry relative="1" as="geometry" />
        </mxCell>
        <mxCell id="vkV_C0hstpCLfrFw6tV1-13" style="edgeStyle=orthogonalEdgeStyle;rounded=0;orthogonalLoop=1;jettySize=auto;html=1;entryX=0;entryY=0.5;entryDx=0;entryDy=0;" edge="1" parent="FLhYPNo3Th5g0a7MgYlW-1" source="vkV_C0hstpCLfrFw6tV1-10" target="vkV_C0hstpCLfrFw6tV1-12">
          <mxGeometry relative="1" as="geometry" />
        </mxCell>
      </root>
    </mxGraphModel>
  </diagram>
</mxfile>
